<?xml version="1.0" encoding="UTF-8"?>
<svg width="10px" height="10px" viewBox="0 0 10 10" version="1.1" xmlns="http://www.w3.org/2000/svg" xmlns:xlink="http://www.w3.org/1999/xlink">
    <title>错-选中</title>
    <g id="错-选中" stroke="none" stroke-width="1" fill="none" fill-rule="evenodd">
        <g fill="#FFFFFF" fill-rule="nonzero" id="形状">
            <path d="M9.82079255,9.82100621 C9.58213417,10.0596646 9.19175724,10.0596646 8.95309885,9.82100621 L0.178993789,1.04690115 C-0.0596645963,0.808242765 -0.0596645963,0.417865835 0.178993789,0.17920745 C0.417652174,-0.0594509356 0.808029104,-0.0594509356 1.04668749,0.17920745 L9.82249725,8.95501721 C10.0594509,9.1919709 10.0594509,9.58234783 9.82079255,9.82100621 Z M9.82079255,0.17920745 C10.0594509,0.417865835 10.0594509,0.808242765 9.82079255,1.04690115 L1.04668749,9.82100621 C0.808029104,10.0596646 0.417652174,10.0596646 0.178993789,9.82100621 C-0.0596645963,9.58234783 -0.0596645963,9.1919709 0.178993789,8.95331251 L8.95480355,0.177502747 C9.19175724,-0.0594509356 9.58213417,-0.0594509356 9.82079255,0.17920745 Z"></path>
        </g>
    </g>
</svg>