<?xml version="1.0" encoding="UTF-8"?>
<svg width="100px" height="100px" viewBox="0 0 100 100" version="1.1" xmlns="http://www.w3.org/2000/svg" xmlns:xlink="http://www.w3.org/1999/xlink">
    <title>万三logo</title>
    <defs>
        <polygon id="path-1" points="0.000220588235 0.113602941 98.4161765 0.113602941 98.4161765 98.5290441 0.000220588235 98.5290441"></polygon>
        <polygon id="path-3" points="0.735294118 0.367647059 1.10294118 0.367647059 1.10294118 0.735294118 0.735294118 0.735294118"></polygon>
    </defs>
    <g id="万三logo" stroke="none" stroke-width="1" fill="none" fill-rule="evenodd">
        <g transform="translate(0.000000, 0.000000)">
            <g id="编组" transform="translate(0.735294, 0.622059)">
                <mask id="mask-2" fill="white">
                    <use xlink:href="#path-1"></use>
                </mask>
                <g id="Clip-2"></g>
                <path d="M93.8788971,47.3150735 C91.9274265,48.4040441 88.9134559,50.0797794 86.0288971,51.6577206 C81.2193382,54.2893382 80.4936029,51.6577206 80.4936029,51.6577206 L71.3891912,35.81875 C72.28625,34.2577206 74.0833088,31.3077206 75.4568382,30.1959559 C77.3627206,28.6533088 84.8950735,29.7422794 87.1634559,29.3790441 C89.4325735,29.0158088 90.5215441,25.8400735 90.5215441,25.8400735 C90.5215441,25.8400735 84.5318382,25.3863971 82.6259559,25.0238971 C80.7200735,24.6599265 80.9928676,22.0283088 80.9928676,22.0283088 L83.9877206,12.8636029 L81.0840441,9.23345588 C81.0840441,9.23345588 77.0906618,21.6658088 75.5472794,23.2988971 C74.2715441,24.6511029 69.5163971,28.4871324 67.9134559,29.7709559 L60.9406618,17.6422794 L60.6200735,17.0827206 L59.4436029,4.65036765 L76.9090441,4.65036765 C86.2421324,4.65036765 93.8788971,12.2863971 93.8788971,21.6202206 L93.8788971,47.3150735 Z M93.8788971,77.0216912 C93.8788971,83.2040441 90.5281618,88.6393382 85.5553676,91.6069853 C84.8274265,84.4224265 82.9803676,66.0533088 82.7627206,62.6386029 C82.4899265,58.3731618 84.3958088,57.8290441 84.3958088,57.8290441 L93.8788971,52.1238971 L93.8788971,77.0216912 Z M58.2833088,66.7599265 C57.9619853,66.8724265 57.7825735,67.23125 57.5899265,67.5459559 C55.8818382,70.3386029 55.9921324,73.4011029 56.3450735,76.4665441 C56.6788971,79.3761029 57.1340441,82.2702206 57.5450735,85.16875 C57.7156618,86.3753676 58.0105147,88.2540441 57.0384559,88.4628676 C56.0002206,88.6863971 56.0436029,86.74375 55.7399265,85.7525735 C54.8208088,82.7540441 54.02375,79.7253676 51.6222794,77.4841912 C51.0296324,76.9305147 50.3575735,76.0886029 49.5061029,76.5599265 C48.5921324,77.0680147 48.9156618,78.1283088 49.0553676,79.0003676 C49.1869853,79.8165441 49.3178676,80.6356618 49.51125,81.4393382 C50.1355147,84.0327206 51.1421324,86.3165441 54.1450735,86.9018382 C54.8318382,87.0363971 55.2097794,87.4547794 55.4641912,88.1261029 C56.2178676,90.1136029 56.4156618,92.0628676 56.0171324,93.9915441 L51.5266912,93.9915441 C51.1119853,93.4658088 50.6847794,92.9474265 50.2619853,92.4224265 C48.9208088,90.7584559 48.1215441,88.66875 46.8436029,86.9444853 C45.6524265,85.3356618 45.43625,83.9033088 45.8928676,81.8908088 C46.6766912,78.4408088 46.0450735,75.0731618 43.68625,72.1878676 C42.8752206,71.1952206 42.4634559,71.0680147 41.9288971,72.3930147 C40.6413971,75.58125 41.7377206,78.5297794 42.7163971,81.4944853 C42.8855147,82.0077206 43.5693382,82.5871324 42.9656618,82.9893382 C42.2759559,83.4481618 41.9590441,82.5878676 41.5046324,82.1775735 C39.1480147,80.0525735 36.4406618,78.5819853 33.2869853,78.0238971 C32.7097794,77.9216912 32.1428676,78.0393382 31.6156618,78.3143382 C30.0538971,79.13125 29.9833088,79.7577206 31.3296324,80.8584559 C34.2597794,83.2533088 37.4980147,84.5047794 41.3928676,84.0952206 C43.2193382,83.9033088 44.5649265,85.3172794 45.6384559,86.6349265 C46.3171324,87.4680147 47.8119853,88.5988971 47.14875,89.4275735 C46.3869853,90.3805147 45.3340441,88.8393382 44.4494853,88.3893382 C41.4708088,86.8753676 38.52375,86.1613971 35.3266912,87.7275735 C34.2921324,88.2341912 34.2186029,88.6966912 35.0972794,89.3327206 C38.2046324,91.5797794 41.59875,92.6709559 45.3230147,91.2025735 C46.7671324,90.6319853 47.6634559,90.8290441 48.6877206,91.8922794 C49.3472794,92.5761029 49.9847794,93.26875 50.5833088,93.9915441 L22.9855147,93.9915441 L21.9156618,79.2452206 L31.2627206,64.1805147 L30.2641912,60.2790441 L21.4619853,69.2636029 L21.3715441,58.1011029 C21.3715441,58.1011029 22.0972794,55.1069853 25.63625,48.3908088 C28.5046324,42.9488971 37.6906618,26.9569853 41.1671324,20.1231618 L57.2494853,20.1231618 C60.7252206,26.9569853 69.91125,42.9488971 72.7803676,48.3908088 C76.3193382,55.1069853 77.0450735,58.1011029 77.0450735,58.1011029 L76.9538971,69.2636029 L68.1524265,60.2790441 L67.1531618,64.1805147 L76.5002206,79.2452206 L75.4311029,93.9915441 L56.7075735,93.9915441 C56.7090441,93.9863971 56.7105147,93.9797794 56.7119853,93.9738971 C57.0355147,92.5724265 57.7811029,92.0459559 59.3178676,92.1628676 C63.1634559,92.4540441 65.4516912,89.7334559 67.7494853,87.2922794 C68.5928676,86.3959559 67.3744853,86.2974265 66.8553676,86.3268382 C64.2494853,86.4731618 61.8502206,87.2268382 59.8641912,89.0136029 C59.3936029,89.4378676 58.9406618,89.8841912 58.1002206,90.0694853 C57.8671324,88.3775735 58.4597794,87.3202206 59.7605147,86.4011029 C62.23625,84.6503676 64.5171324,82.6775735 64.7163971,79.3003676 C64.7355147,78.9819853 64.8053676,78.6452206 64.7311029,78.3474265 C64.5538971,77.6378676 64.7413971,76.6503676 63.8583088,76.3761029 C62.9950735,76.1084559 62.5016912,76.9099265 61.9921324,77.4606618 C60.8031618,78.7474265 60.0252206,80.2775735 59.4318382,81.9113971 C59.26125,82.3797794 59.1833088,83.08125 58.6119853,83.0738971 C57.8281618,83.0643382 57.9788971,82.2261029 57.87375,81.7305147 C57.4516912,79.7408088 57.2149265,77.8716912 58.5163971,75.9268382 C60.1553676,73.4805147 60.0568382,70.6055147 59.5002206,67.7797794 C59.4105147,67.3246324 59.1972794,66.8922794 58.7369853,66.7606618 L58.2833088,66.7599265 Z M12.3869853,51.6577206 C9.50316176,50.0797794 6.48845588,48.4040441 4.53698529,47.3150735 L4.53698529,21.6202206 C4.53698529,12.2863971 12.17375,4.65036765 21.5068382,4.65036765 L38.9730147,4.65036765 L37.7972794,17.0827206 L37.4752206,17.6422794 L30.5038971,29.7709559 C28.8994853,28.4871324 24.1450735,24.6511029 22.8686029,23.2988971 C21.3259559,21.6658088 17.3325735,9.23345588 17.3325735,9.23345588 L14.4288971,12.8636029 L17.42375,22.0283088 C17.42375,22.0283088 17.6965441,24.6599265 15.7906618,25.0238971 C13.8847794,25.3863971 7.89507353,25.8400735 7.89507353,25.8400735 C7.89507353,25.8400735 8.98404412,29.0158088 11.2531618,29.3790441 C13.5215441,29.7422794 21.0538971,28.6533088 22.9597794,30.1959559 C24.3325735,31.3077206 26.1296324,34.2577206 27.0274265,35.81875 L17.9222794,51.6577206 C17.9222794,51.6577206 17.1965441,54.2893382 12.3869853,51.6577206 L12.3869853,51.6577206 Z M15.6538971,62.6386029 C15.4355147,66.0533088 13.5891912,84.4224265 12.86125,91.6069853 C7.88772059,88.6393382 4.53698529,83.2040441 4.53698529,77.0216912 L4.53698529,52.1238971 L14.0208088,57.8290441 C14.0208088,57.8290441 15.9259559,58.3731618 15.6538971,62.6386029 L15.6538971,62.6386029 Z M44.1561029,4.65036765 L54.2597794,4.65036765 C54.7119853,7.97242647 55.3906618,12.9886029 55.7208088,15.5856618 L42.6958088,15.5856618 C43.0252206,12.9886029 43.7038971,7.97242647 44.1561029,4.65036765 L44.1561029,4.65036765 Z M96.7156618,13.2569853 C95.6296324,10.6996324 94.0781618,8.40183824 92.1024265,6.42757353 C90.1274265,4.45183824 87.8288971,2.89963235 85.2722794,1.81286765 C82.6171324,0.684926471 79.8024265,0.113602941 76.9090441,0.113602941 L21.5068382,0.113602941 C18.6134559,0.113602941 15.7994853,0.684926471 13.1436029,1.81286765 C10.5869853,2.89963235 8.28919118,4.45183824 6.31419118,6.42757353 C4.33919118,8.40183824 2.78625,10.6996324 1.70022059,13.2569853 C0.572279412,15.9128676 0.000220588235,18.7261029 0.000220588235,21.6202206 L0.000220588235,77.0216912 C0.000220588235,79.9158088 0.572279412,82.7297794 1.70022059,85.3849265 C2.78625,87.9422794 4.33919118,90.2408088 6.31419118,92.2150735 C8.28919118,94.1908088 10.5869853,95.7422794 13.1436029,96.8290441 C15.7994853,97.9569853 18.6134559,98.5290441 21.5068382,98.5290441 L76.9090441,98.5290441 C79.8024265,98.5290441 82.6171324,97.9569853 85.2722794,96.8290441 C87.8288971,95.7422794 90.1274265,94.1908088 92.1024265,92.2150735 C94.0781618,90.2408088 95.6296324,87.9422794 96.7156618,85.3849265 C97.8443382,82.7297794 98.4163971,79.9158088 98.4163971,77.0216912 L98.4163971,21.6202206 C98.4163971,18.7261029 97.8443382,15.9128676 96.7156618,13.2569853 L96.7156618,13.2569853 Z" id="Fill-1" fill="#231916" mask="url(#mask-2)"></path>
            </g>
            <path d="M26.0085294,10.0824265 C26.0085294,10.0824265 26.4548529,20.3655147 38.2107353,18.2640441 C38.2107353,18.2640441 36.7166176,8.35742647 26.0085294,10.0824265" id="Fill-3" fill="#231916"></path>
            <path d="M13.62125,42.5244118 C13.62125,42.5244118 23.6036029,40.9817647 22.33375,31.1810294 C22.33375,31.1810294 12.6234559,30.5457353 13.62125,42.5244118" id="Fill-5" fill="#231916"></path>
            <path d="M73.8780147,10.0824265 C63.1699265,8.35742647 61.6765441,18.2633088 61.6758088,18.2640441 C73.4324265,20.3655147 73.8780147,10.0824265 73.8780147,10.0824265" id="Fill-7" fill="#231916"></path>
            <g id="编组" transform="translate(0.000000, 98.416176)">
                <mask id="mask-4" fill="white">
                    <use xlink:href="#path-3"></use>
                </mask>
                <g id="Clip-10"></g>
                <path d="" id="Fill-9" fill="#231916" mask="url(#mask-4)"></path>
            </g>
            <path d="M77.55375,31.1811765 C76.2824265,40.9819118 86.2655147,42.5245588 86.2655147,42.5245588 C87.2633088,30.5458824 77.55375,31.1811765 77.55375,31.1811765" id="Fill-11" fill="#231916"></path>
            <path d="M63.2320588,64.8603676 C63.2342647,65.4993382 63.0945588,65.7338971 62.4019118,65.7317066 C58.2497059,65.7147794 54.0960294,65.7133088 49.9438235,65.7243382 C45.7901471,65.7133088 41.6379412,65.7147794 37.4842647,65.7317066 C36.7916176,65.7338971 36.6533824,65.4993382 36.6541176,64.8603676 C36.6754412,58.0206618 36.6225,51.1809559 36.6820588,44.3434559 C36.7291176,38.8449265 39.2526471,34.7515441 44.1335294,32.2361029 C45.9901471,31.2794853 47.9364706,30.8522794 49.9438235,30.8794853 C51.9504412,30.8522794 53.8975,31.2794853 55.7533824,32.2361029 C60.635,34.7515441 63.1570588,38.8449265 63.2055882,44.3434559 C63.2651471,51.1809559 63.2122059,58.0206618 63.2320588,64.8603676 M58.61,67.3824265 L60.5438235,67.3824265 M64.2386765,67.3949455 C64.8122059,67.3971324 64.9136765,67.2081618 64.9115054,66.6853676 C64.8908824,62.7383088 64.9004412,58.79125 64.9004412,54.8441912 L64.8982353,54.8441912 C64.8982353,51.2478676 64.9158824,47.6515441 64.8945588,44.0552206 C64.8430882,35.7478676 58.0195588,29.1147794 49.9511765,29.1846324 L49.9438235,29.1846324 L49.9364706,29.1846324 C41.8666176,29.1147794 35.0438235,35.7478676 34.9930882,44.0552206 C34.9702941,47.6515441 34.9894118,51.2478676 34.9894118,54.8441912 L34.9872059,54.8441912 C34.9872059,58.79125 34.9967647,62.7383088 34.9753804,66.6853676 C34.9725,67.2081618 35.0747059,67.3971324 35.6475,67.3949455 C40.4107353,67.3765441 45.1732353,67.3765441 49.9364706,67.3883088 L49.9438235,67.3883088 L49.9511765,67.3883088" id="Fill-13" fill="#231916"></path>
            <path d="M60.3318382,62.1855882 C60.3347794,62.6569118 60.2038971,62.8444118 59.7002206,62.8415046 C56.8502206,62.8216176 54.0002206,62.8245588 51.1502206,62.8407353 C50.6818382,62.8429412 50.4921324,62.7245588 50.4972794,62.2142647 C50.5208088,59.7157353 50.52375,57.2164706 50.4965441,54.7172059 C50.4899265,54.1451471 50.7090441,54.0142647 51.2288971,54.0238235 C52.6090441,54.0510294 53.9906618,54.0333824 55.3722794,54.0319118 C56.7965441,54.0319118 58.2222794,54.0539706 59.6465441,54.0208824 C60.1656618,54.0091176 60.3391912,54.1694118 60.3355717,54.6885294 C60.3156618,57.1870588 60.3163971,59.6870588 60.3318382,62.1855882 M49.9436029,42.4775 C49.1928676,42.4767647 48.4421324,42.4679412 47.6921324,42.4819118 C47.2906618,42.49 47.1413971,42.3605882 47.2296324,41.9392647 C47.4891912,40.6936765 48.6068382,39.7672059 49.9053676,39.7480882 C49.9156618,39.7473529 49.9259559,39.7480882 49.93625,39.7480882 L49.9436029,39.7480882 L49.9509559,39.7480882 C49.96125,39.7480882 49.9715441,39.7473529 49.9818382,39.7480882 C51.2803676,39.7672059 52.3972794,40.6936765 52.6575735,41.9392647 C52.7465441,42.3605882 52.5958088,42.49 52.1958088,42.4819118 C51.4450735,42.4679412 50.6943382,42.4767647 49.9436029,42.4775 M49.3899265,62.2142647 C49.3943382,62.7245588 49.2053676,62.8429412 48.7369853,62.8407353 C45.8869853,62.8245588 43.0369853,62.8216176 40.1877206,62.8415046 C39.6825735,62.8444118 39.5516095,62.6569118 39.5546324,62.1855882 C39.5708088,59.6870588 39.5715441,57.1870588 39.5516095,54.6885294 C39.5472794,54.1694118 39.7208088,54.0091176 40.2406618,54.0208824 C41.6641912,54.0539706 43.0899265,54.0319118 44.5149265,54.0319118 C45.8958088,54.0333824 47.2774265,54.0510294 48.6583088,54.0238235 C49.1774265,54.0142647 49.3965441,54.1451471 49.3906618,54.7172059 C49.3634559,57.2164706 49.3663971,59.7157353 49.3899265,62.2142647 M40.2134559,44.1767647 C43.0605147,44.1922059 45.9068382,44.1944118 48.7531618,44.1752541 C49.2443382,44.1723529 49.3921324,44.3311765 49.3877206,44.8164706 C49.3678676,47.3120588 49.3663971,49.8091176 49.3892698,52.3047059 C49.3936029,52.8091176 49.2127206,52.9429412 48.7406618,52.9355882 C47.3186029,52.9135294 45.8943382,52.9275 44.4715441,52.9275 C43.0480147,52.9267647 41.6244853,52.9113235 40.2009559,52.9355882 C39.7163971,52.9436765 39.54875,52.7804412 39.5523675,52.2944118 C39.5693382,49.7973529 39.5708088,47.3017647 39.5523675,44.8047059 C39.54875,44.3054412 39.7421324,44.1738235 40.2134559,44.1767647 M39.6634559,41.9870588 C39.9436029,40.7414706 40.4097794,39.5752941 41.0877206,38.4922059 C41.2450735,38.2414706 41.38625,38.1885294 41.6649265,38.3532353 C43.0553676,39.1752941 44.4465441,39.9995588 45.8649265,40.7708824 C46.6046324,41.1730882 46.0516912,41.6811765 46.0575735,42.1341176 C46.0627206,42.5686765 45.6796324,42.4716176 45.4134559,42.4745588 C44.5377206,42.4833824 43.6619853,42.4775 42.78625,42.4775 C41.8891912,42.4767647 40.9906618,42.4657353 40.0943382,42.4826471 C39.7186029,42.49 39.5744853,42.3804412 39.6634559,41.9870588 M42.3230147,36.9363235 C44.1333088,35.0929412 46.2788971,33.9444118 48.8840441,33.7179412 C49.2656618,33.6848529 49.3913971,33.8157353 49.3811029,34.1870588 C49.3634559,34.8657353 49.3766912,35.5458824 49.3766912,36.2245588 L49.3788971,36.2245588 C49.3788971,36.8377941 49.3627206,37.4525 49.3847794,38.065 C49.3980147,38.4194118 49.3149265,38.6436765 48.93625,38.7377941 C48.2399265,38.9098529 47.6421324,39.2716176 47.1524265,39.7951471 C46.9443382,40.0179412 46.7538971,39.9966176 46.5163971,39.8576471 C45.1413971,39.0525 43.7678676,38.2436765 42.3803676,37.4613235 C42.0546324,37.2775 42.1105147,37.1525 42.3230147,36.9363235 M50.5016912,38.065 C50.5244853,37.4525 50.5083088,36.8377941 50.5083088,36.2245588 L50.51125,36.2245588 C50.51125,35.5458824 50.52375,34.8657353 50.5053676,34.1870588 C50.4950735,33.8157353 50.6215441,33.6848529 51.0024265,33.7179412 C53.6075735,33.9444118 55.7531618,35.0929412 57.5641912,36.9363235 C57.7766912,37.1525 57.8333088,37.2775 57.5068382,37.4613235 C56.1193382,38.2436765 54.7458088,39.0525 53.3708088,39.8576471 C53.1333088,39.9966176 52.9428676,40.0179412 52.7347794,39.7951471 C52.2450735,39.2716176 51.6465441,38.9098529 50.9509559,38.7377941 C50.5730147,38.6436765 50.4884559,38.4194118 50.5016912,38.065 M58.79875,38.4922059 C59.4766912,39.5752941 59.9436029,40.7414706 60.2244853,41.9870588 C60.3134559,42.3804412 60.1686029,42.49 59.7936029,42.4826471 C58.8958088,42.4657353 57.9980147,42.4767647 57.1002206,42.4775 C56.2252206,42.4775 55.3494853,42.4833824 54.47375,42.4745588 C54.2075735,42.4716176 53.8244853,42.5686765 53.8296324,42.1341176 C53.8355147,41.6811765 53.2818382,41.1730882 54.0222794,40.7708824 C55.4413971,39.9995588 56.8311029,39.1752941 58.2222794,38.3532353 C58.5009559,38.1885294 58.6413971,38.2414706 58.79875,38.4922059 M60.3348384,52.2944118 C60.3384559,52.7804412 60.1708088,52.9436765 59.6855147,52.9355882 C58.2634559,52.9113235 56.8391912,52.9267647 55.4156618,52.9275 C53.9928676,52.9275 52.5686029,52.9135294 51.1458088,52.9355882 C50.6744853,52.9429412 50.4928676,52.8091176 50.4980147,52.3047059 C50.5200735,49.8091176 50.5186029,47.3120588 50.49875,44.8164706 C50.4950735,44.3311765 50.6421324,44.1723529 51.1333088,44.1752541 C53.9796324,44.1944118 56.8266912,44.1922059 59.6730147,44.1767647 C60.1443382,44.1738235 60.3384559,44.3054412 60.3348384,44.8047059 C60.3163971,47.3017647 60.3171324,49.7973529 60.3348384,52.2944118 M62.1171324,44.1605882 C62.1061029,38.9039706 58.8700735,34.2833824 53.8825735,32.6091176 C52.5759559,32.1708824 51.2509559,31.9605882 49.9509559,31.9561765 L49.9436029,31.9561765 L49.93625,31.9561765 C48.63625,31.9605882 47.31125,32.1708824 46.0053676,32.6091176 C41.0171324,34.2833824 37.7811029,38.9039706 37.7700735,44.1605882 C37.7568382,50.7164706 37.7759559,57.2723529 37.7531445,63.8282353 C37.7509559,64.4789706 37.9597794,64.6297059 38.5774265,64.6268066 C42.3634559,64.6120588 46.1502206,64.6120588 49.93625,64.6127941 L49.9436029,64.6127941 L49.9509559,64.6127941 C53.7369853,64.6120588 57.52375,64.6120588 61.3090441,64.6268066 C61.9266912,64.6297059 62.13625,64.4789706 62.1340613,63.8282353 C62.11125,57.2723529 62.1303676,50.7164706 62.1171324,44.1605882" id="Fill-15" fill="#231916"></path>
        </g>
    </g>
</svg>