<?xml version="1.0" encoding="UTF-8"?>
<svg width="10px" height="10px" viewBox="0 0 10 10" version="1.1" xmlns="http://www.w3.org/2000/svg" xmlns:xlink="http://www.w3.org/1999/xlink">
    <title>编辑</title>
    <g id="编辑" stroke="none" stroke-width="1" fill="none" fill-rule="evenodd" fill-opacity="0.353201486">
        <g fill="#000000" fill-rule="nonzero" id="形状">
            <path d="M5.30848192,2.03125756 C6.21370505,2.93476182 7.10428168,3.82396624 8.02641907,4.74421143 C7.99662052,4.76206456 7.95060104,4.77897881 7.91892473,4.8104529 C6.57042103,6.1446712 5.22047291,7.47708397 3.87937914,8.81872662 C3.70424222,8.99386354 3.51570101,9.10543117 3.27946479,9.17245264 C2.35927738,9.43374969 1.44290326,9.70821993 0.524608054,9.97658024 C0.319860361,10.0363796 0.159702166,9.98251684 0.0565122176,9.82352863 C-0.0116359034,9.71867759 -0.0114192391,9.60403333 0.0217014987,9.49034239 C0.314877084,8.48650815 0.608485997,7.48287612 0.906413751,6.48067408 C0.928123506,6.40820712 0.974345208,6.33478684 1.02819349,6.28119855 C2.42648662,4.89411418 3.82766861,3.50987534 5.22765172,2.12466873 C5.2578836,2.09462462 5.28366665,2.05988612 5.30845303,2.03125756 L5.30848192,2.03125756 Z M1.56761519,6.91372809 C1.5535609,6.95568873 1.54258325,6.98573284 1.53355557,7.01647027 C1.40960919,7.43685664 1.30090153,7.86255851 1.15645871,8.27580941 C1.08117511,8.49124587 1.10193155,8.64283861 1.28993832,8.77082939 C1.3247057,8.79444579 1.35472092,8.82776874 1.38070618,8.86136614 C1.42168461,8.91499776 1.46745854,8.91647108 1.52822563,8.89808351 C1.87191287,8.79418579 2.2167701,8.69365359 2.5614251,8.5923414 C2.73380316,8.5415553 2.90625344,8.49126031 3.09079358,8.43744092 C3.06196279,8.4045224 3.04620408,8.37858047 3.023671,8.3623451 C2.8818426,8.25963181 2.81898109,8.12329224 2.83182205,7.94786644 C2.83680533,7.8825494 2.82796543,7.81606237 2.82418103,7.75008089 C2.81298671,7.56702851 2.80130129,7.38397613 2.78937031,7.19661935 C2.53721648,7.17590625 2.29773029,7.1509032 2.05769522,7.13851 C1.88247164,7.12945344 1.7171135,7.11197586 1.61009582,6.94827881 C1.60340812,6.93806671 1.59029271,6.93185566 1.56770185,6.91377142 L1.56761519,6.91372809 Z M9.35173969,3.2190975 C8.49588711,2.36445825 7.64168118,1.51122008 6.77820203,0.648882024 C6.98580969,0.460095262 7.15313225,0.21301138 7.42601361,0.0814384184 C7.75489546,-0.0768275758 8.16365419,-0.0019773082 8.45531313,0.284727239 C8.87887724,0.701314766 9.30070804,1.12008338 9.71541781,1.54575636 C10.0988557,1.93897304 10.0924136,2.47000261 9.7106512,2.86323374 C9.59122588,2.98599569 9.46758283,3.10446768 9.3517108,3.2190975 L9.35173969,3.2190975 Z M9.00237585,3.72484958 C8.81007913,3.905042 8.61032916,4.09187878 8.41533135,4.27442561 C7.51734481,3.37643906 6.62502042,2.4843169 5.72792942,1.58725478 C5.92454498,1.40301797 6.12402051,1.21593563 6.31468503,1.03714432 C7.21129937,1.93352755 8.10285821,2.82515861 9.00237585,3.72483514 L9.00237585,3.72484958 Z"></path>
        </g>
    </g>
</svg>