<?xml version="1.0" encoding="UTF-8"?>
<svg width="32px" height="34px" viewBox="0 0 32 34" version="1.1" xmlns="http://www.w3.org/2000/svg" xmlns:xlink="http://www.w3.org/1999/xlink">
    <title>Icon/Plus</title>
    <g id="页面-1" stroke="none" stroke-width="1" fill="none" fill-rule="evenodd">
        <g id="产品列表-新增产品-布" transform="translate(-348.000000, -264.000000)" fill="#000000">
            <g id="3.数据录入/10.Upload上传/亮色/上传头像" transform="translate(264.000000, 202.000000)">
                <g id="Icon/Plus" transform="translate(76.923077, 56.000000)">
                    <rect id="矩形" fill-rule="nonzero" opacity="0" x="0" y="0" width="46.1538462" height="46.1538462"></rect>
                    <path d="M24.4290865,6.85096154 C24.6694712,6.85096154 24.7896635,6.97115385 24.7896635,7.21153846 L24.7891154,21.3639615 L38.2211538,21.3641827 C38.4615385,21.3641827 38.5817308,21.484375 38.5817308,21.7247596 L38.5817308,24.4290865 C38.5817308,24.6694712 38.4615385,24.7896635 38.2211538,24.7896635 L24.7891154,24.7889615 L24.7896635,38.9423077 C24.7896635,39.1826923 24.6694712,39.3028846 24.4290865,39.3028846 L21.7247596,39.3028846 C21.484375,39.3028846 21.3641827,39.1826923 21.3641827,38.9423077 L21.3641154,24.7889615 L7.93269231,24.7896635 C7.69230769,24.7896635 7.57211538,24.6694712 7.57211538,24.4290865 L7.57211538,21.7247596 C7.57211538,21.484375 7.69230769,21.3641827 7.93269231,21.3641827 L21.3641154,21.3639615 L21.3641827,7.21153846 C21.3641827,6.97115385 21.484375,6.85096154 21.7247596,6.85096154 L24.4290865,6.85096154 Z" id="形状" fill-opacity="0.45"></path>
                </g>
            </g>
        </g>
    </g>
</svg>