<?xml version="1.0" encoding="UTF-8"?>
<svg width="26px" height="26px" viewBox="0 0 26 26" version="1.1" xmlns="http://www.w3.org/2000/svg" xmlns:xlink="http://www.w3.org/1999/xlink">
    <title>LOGO</title>
    <defs>
        <polygon id="path-1" points="3.84250474e-05 0.0295872865 25.7151945 0.0295872865 25.7151945 25.7447434 3.84250474e-05 25.7447434"></polygon>
        <linearGradient x1="50%" y1="50%" x2="50%" y2="100%" id="linearGradient-3">
            <stop stop-color="#35C3FF" offset="0%"></stop>
            <stop stop-color="#1890FF" offset="100%"></stop>
        </linearGradient>
        <linearGradient x1="50%" y1="50%" x2="50%" y2="100%" id="linearGradient-4">
            <stop stop-color="#35C3FF" offset="0%"></stop>
            <stop stop-color="#1890FF" offset="100%"></stop>
        </linearGradient>
        <linearGradient x1="50%" y1="50%" x2="50%" y2="100%" id="linearGradient-5">
            <stop stop-color="#35C3FF" offset="0%"></stop>
            <stop stop-color="#1890FF" offset="100%"></stop>
        </linearGradient>
        <linearGradient x1="50%" y1="50%" x2="50%" y2="100%" id="linearGradient-6">
            <stop stop-color="#35C3FF" offset="0%"></stop>
            <stop stop-color="#1890FF" offset="100%"></stop>
        </linearGradient>
        <polygon id="path-7" points="0.25 0.125 0.375 0.125 0.375 0.25 0.25 0.25"></polygon>
        <linearGradient x1="50%" y1="50%" x2="50%" y2="100%" id="linearGradient-9">
            <stop stop-color="#35C3FF" offset="0%"></stop>
            <stop stop-color="#1890FF" offset="100%"></stop>
        </linearGradient>
        <linearGradient x1="50%" y1="50%" x2="50%" y2="100%" id="linearGradient-10">
            <stop stop-color="#FF8487" offset="0%"></stop>
            <stop stop-color="#FF4D4F" offset="100%"></stop>
        </linearGradient>
        <linearGradient x1="50%" y1="50%" x2="50%" y2="100%" id="linearGradient-11">
            <stop stop-color="#FF8487" offset="0%"></stop>
            <stop stop-color="#FF4D4F" offset="100%"></stop>
        </linearGradient>
    </defs>
    <g id="LOGO" stroke="none" stroke-width="1" fill="none" fill-rule="evenodd">
        <g>
            <g id="编组" transform="translate(0.192125, 0.162538)">
                <mask id="mask-2" fill="white">
                    <use xlink:href="#path-1"></use>
                </mask>
                <g id="Clip-2"></g>
                <path d="M24.5296281,12.3630285 C24.0197277,12.6473738 23.2322064,13.0854194 22.4784991,13.4977201 C21.2218079,14.1853363 21.0321803,13.4977201 21.0321803,13.4977201 L18.6532856,9.35915038 C18.8876784,8.95107638 19.3574246,8.18026992 19.7161224,7.88996869 C20.214111,7.48688994 22.1822419,7.77142742 22.7749483,7.67651755 C23.3678468,7.58160769 23.6523843,6.75181879 23.6523843,6.75181879 C23.6523843,6.75181879 22.0873321,6.63327751 21.5893435,6.53836765 C21.0913548,6.44345778 21.1626333,5.75584156 21.1626333,5.75584156 L21.9451594,3.3611926 L21.1864568,2.41247818 C21.1864568,2.41247818 20.1430247,5.66093169 19.7399459,6.08783397 C19.4064165,6.44096015 18.1639426,7.44327751 17.7451096,7.7789203 L15.9233781,4.60981452 L15.8394194,4.46360721 L15.532019,1.2151537 L20.0955697,1.2151537 C22.5342154,1.2151537 24.5296281,3.21037429 24.5296281,5.64921205 L24.5296281,12.3630285 Z M24.5296281,20.1250802 C24.5296281,21.7404692 23.6543055,23.1606589 22.3547704,23.9360764 C22.1645664,22.0588207 21.6819478,17.259148 21.6250787,16.3669184 C21.5539924,15.2523999 22.051981,15.1102272 22.051981,15.1102272 L24.5296281,13.6195275 L24.5296281,20.1250802 Z M15.2288454,17.4437804 C15.1448866,17.4729834 15.0980081,17.5669326 15.0476713,17.6491622 C14.6013643,18.3788539 14.6303752,19.1790555 14.7224032,19.9800256 C14.8096281,20.7400731 14.9285536,21.496278 15.0359516,22.2538278 C15.0805247,22.5691053 15.157759,23.0597932 14.9035773,23.1143567 C14.6322965,23.1729549 14.6436319,22.6651679 14.5642842,22.4063752 C14.3241276,21.6228885 14.1158639,20.8315247 13.4883828,20.2457348 C13.3335299,20.1012566 13.1579274,19.8812732 12.9354464,20.0044255 C12.6966347,20.1371841 12.7811698,20.4142287 12.8176736,20.6420892 C12.852064,20.8553482 12.8862623,21.0693757 12.9367913,21.2791765 C13.0999056,21.9569943 13.362925,22.5535432 14.1475645,22.706667 C14.3270095,22.7418259 14.4257619,22.8511452 14.4922372,23.0265555 C14.6891656,23.54587 14.7408472,24.055194 14.6367154,24.5591385 L13.4634065,24.5591385 C13.3550479,24.421769 13.2434231,24.2863207 13.1329511,24.1489511 C12.7825147,23.7143639 12.5736746,23.1683439 12.2397609,22.7178102 C11.928518,22.2974402 11.8720332,21.9229881 11.991343,21.3973335 C12.1961485,20.4956898 12.0311129,19.6159483 11.4147751,18.8618567 C11.202861,18.6026798 11.0952709,18.5694421 10.9555958,18.9156518 C10.6191845,19.7487068 10.9056433,20.519129 11.161362,21.293778 C11.2055508,21.4278814 11.3842272,21.5792761 11.2264924,21.6841765 C11.0462789,21.8042547 10.963473,21.5794682 10.8445474,21.4722623 C10.2289782,20.9170204 9.52157306,20.5325778 8.69754791,20.3869469 C8.5467296,20.3600493 8.39860104,20.3907894 8.26084725,20.4628363 C7.85277324,20.6762875 7.83432922,20.8399782 8.18611053,21.1273975 C8.9517296,21.7533416 9.79784915,22.0803387 10.8155365,21.973325 C11.2927756,21.9231803 11.6443648,22.2926371 11.9248676,22.6369255 C12.1021992,22.8546034 12.4927898,23.150092 12.3194929,23.366425 C12.1204511,23.6156115 11.8453278,23.212917 11.6142011,23.0951442 C10.8359018,22.6997505 10.0658639,22.5131969 9.23050332,22.9224236 C8.96018311,23.0547979 8.94116271,23.1756447 9.17056025,23.3416409 C9.98267362,23.9289677 10.8693316,24.2138895 11.8424459,23.8302154 C12.219972,23.6813183 12.4539806,23.7328079 12.721611,24.0104288 C12.8939473,24.1892974 13.0605199,24.3702794 13.2169099,24.5591385 L6.00587334,24.5591385 L5.72633112,20.7060669 L8.16862713,16.769805 L7.90772106,15.7503885 L5.60778985,18.0977747 L5.58415844,15.1813136 C5.58415844,15.1813136 5.77378605,14.3987875 6.69848482,12.6441077 C7.44796537,11.2221888 9.84818596,7.04365702 10.7565541,5.25804507 L14.9587173,5.25804507 C15.8668933,7.04365702 18.2671139,11.2221888 19.0167865,12.6441077 C19.9414853,14.3987875 20.1311129,15.1813136 20.1311129,15.1813136 L20.1072894,18.0977747 L17.8075503,15.7503885 L17.5464521,16.769805 L19.9889402,20.7060669 L19.709398,24.5591385 L14.817121,24.5591385 C14.8175052,24.5576015 14.8178895,24.5560645 14.8182737,24.5543354 C14.9028088,24.1881447 15.0976238,24.0507751 15.4991656,24.0811309 C16.5039806,24.1574046 17.1018743,23.4465413 17.7022657,22.8086855 C17.9226333,22.5744848 17.6042818,22.54874 17.4686414,22.556425 C16.7877495,22.5944658 16.1608449,22.7915863 15.6419146,23.2584507 C15.5189545,23.3691148 15.4006053,23.4859269 15.1810062,23.5341504 C15.1201025,23.0922623 15.2749554,22.8159862 15.614825,22.5758297 C16.2617106,22.1183795 16.8576831,21.6027154 16.9099412,20.7204763 C16.9147443,20.6370939 16.9329962,20.5491006 16.9135916,20.4712898 C16.8672894,20.285889 16.9162813,20.0280569 16.6855389,19.9563942 C16.4599839,19.8864606 16.3310678,20.0958771 16.197925,20.2397789 C15.8872585,20.5759981 15.68399,20.9758107 15.528945,21.4025209 C15.4843719,21.5250968 15.4640066,21.7083843 15.3147253,21.706463 C15.1099198,21.7037732 15.1494976,21.4849426 15.1218316,21.3554502 C15.0115517,20.8355593 14.9496874,20.3471769 15.2897491,19.8390057 C15.7179962,19.199805 15.6922514,18.4485954 15.5468126,17.7102581 C15.5233733,17.5913325 15.467657,17.4783629 15.3473866,17.4439725 L15.2288454,17.4437804 Z M3.23658017,13.4977201 C2.48306499,13.0854194 1.69535152,12.6473738 1.18564326,12.3630285 L1.18564326,5.64921205 C1.18564326,3.21037429 3.18086385,1.2151537 5.61970161,1.2151537 L10.1832524,1.2151537 L9.87604412,4.46360721 L9.79189326,4.60981452 L7.97035389,7.7789203 C7.55113662,7.44327751 6.30885484,6.44096015 5.97532543,6.08783397 C5.57224668,5.66093169 4.52881452,2.41247818 4.52881452,2.41247818 L3.77011195,3.3611926 L4.55244592,5.75584156 C4.55244592,5.75584156 4.62391651,6.44345778 4.12592789,6.53836765 C3.62793928,6.63327751 2.0628871,6.75181879 2.0628871,6.75181879 C2.0628871,6.75181879 2.34742457,7.58160769 2.94032306,7.67651755 C3.53302941,7.77142742 5.50116034,7.48688994 5.99914896,7.88996869 C6.35784677,8.18026992 6.82740085,8.95107638 7.06198577,9.35915038 L4.68309108,13.4977201 C4.68309108,13.4977201 4.49346347,14.1853363 3.23658017,13.4977201 L3.23658017,13.4977201 Z M4.0901926,16.3669184 C4.0331314,17.259148 3.55070493,22.0588207 3.36050095,23.9360764 C2.06096584,23.1606589 1.18564326,21.740277 1.18564326,20.1250802 L1.18564326,13.6195275 L3.66348245,15.1102272 C3.66348245,15.1102272 4.16127894,15.2523999 4.0901926,16.3669184 L4.0901926,16.3669184 Z M11.5377353,1.2151537 L14.1775361,1.2151537 C14.2956931,2.08317552 14.4732168,3.39385389 14.5592889,4.07244023 L11.1559824,4.07244023 C11.2420546,3.39385389 11.4193861,2.08317552 11.5377353,1.2151537 L11.5377353,1.2151537 Z M25.2708472,3.4639796 C24.9870783,2.79576803 24.581694,2.19537666 24.0654535,1.67932827 C23.5494051,1.16327989 22.9488216,0.75770351 22.2808022,0.47374241 C21.587038,0.179022296 20.8515825,0.0295488615 20.0955697,0.0295488615 L5.61970161,0.0295488615 C4.8636888,0.0295488615 4.1282334,0.179022296 3.43446917,0.47374241 C2.76625759,0.75770351 2.16586622,1.16327989 1.64981784,1.67932827 C1.13376945,2.19537666 0.728000949,2.79576803 0.444424099,3.4639796 C0.14951186,4.15793596 3.84250474e-05,4.89300712 3.84250474e-05,5.64921205 L3.84250474e-05,20.1250802 C3.84250474e-05,20.8812851 0.14951186,21.6165484 0.444424099,22.3103126 C0.728000949,22.9785242 1.13376945,23.5789156 1.64981784,24.0949639 C2.16586622,24.6110123 2.76625759,25.0165887 3.43446917,25.3005498 C4.1282334,25.5952699 4.8636888,25.7447434 5.61970161,25.7447434 L20.0955697,25.7447434 C20.8515825,25.7447434 21.587038,25.5952699 22.2808022,25.3005498 C22.9488216,25.0165887 23.5494051,24.6110123 24.0654535,24.0949639 C24.581694,23.5789156 24.9870783,22.9785242 25.2708472,22.3103126 C25.5659516,21.6165484 25.7152329,20.8812851 25.7152329,20.1250802 L25.7152329,5.64921205 C25.7152329,4.89300712 25.5659516,4.15793596 25.2708472,3.4639796 L25.2708472,3.4639796 Z" id="Fill-1" fill="url(#linearGradient-3)" mask="url(#mask-2)"></path>
            </g>
            <path d="M6.79575783,2.63430598 C6.79575783,2.63430598 6.91237785,5.32117742 9.98407614,4.77227562 C9.98407614,4.77227562 9.59367766,2.1837723 6.79575783,2.63430598" id="Fill-3" fill="url(#linearGradient-4)"></path>
            <path d="M3.55927372,11.1112557 C3.55927372,11.1112557 6.16737381,10.7081769 5.83557353,8.14733966 C5.83557353,8.14733966 3.29836765,7.98134345 3.55927372,11.1112557" id="Fill-5" fill="url(#linearGradient-5)"></path>
            <path d="M19.3037832,2.63430598 C16.5058634,2.1837723 16.1154649,4.77208349 16.1154649,4.77227562 C19.1871632,5.32117742 19.3037832,2.63430598 19.3037832,2.63430598" id="Fill-7" fill="url(#linearGradient-6)"></path>
            <g id="编组" transform="translate(0.000000, 25.715194)">
                <mask id="mask-8" fill="white">
                    <use xlink:href="#path-7"></use>
                </mask>
                <g id="Clip-10"></g>
                <path d="" id="Fill-9" fill="#7F92A4" mask="url(#mask-8)"></path>
            </g>
            <path d="M20.2640251,8.1473973 C19.9320327,10.7082346 22.540325,11.1113133 22.540325,11.1113133 C22.8010389,7.98140109 20.2640251,8.1473973 20.2640251,8.1473973" id="Fill-11" fill="url(#linearGradient-9)"></path>
            <path d="M16.5219058,16.947444 C16.5224822,17.1142087 16.4859784,17.1756888 16.3051886,17.1751164 C15.2200652,17.1705014 14.1347498,17.1703093 13.0498185,17.1731912 C11.9645031,17.1703093 10.8795719,17.1705014 9.7942564,17.1751164 C9.61346656,17.1756888 9.57715489,17.1142087 9.57753914,16.947444 C9.58291864,15.1602951 9.56908563,13.3731461 9.58464777,11.5863814 C9.59713591,10.1496689 10.2563176,9.08010769 11.5316449,8.42284725 C12.0167611,8.17289231 12.5253167,8.06145968 13.0498185,8.06837619 C13.5741283,8.06145968 14.0828759,8.17289231 14.5678,8.42284725 C15.8433195,9.08010769 16.5023091,10.1496689 16.5149893,11.5863814 C16.5305515,13.3731461 16.5167185,15.1602951 16.5219058,16.947444 M15.3142066,17.6062415 L15.819496,17.6062415 M16.7849253,17.6097047 C16.934783,17.6102761 16.9614884,17.5608999 16.9607357,17.4242989 C16.9553404,16.3929706 16.957838,15.3616423 16.957838,14.330314 L16.9572616,14.330314 C16.9572616,13.3906295 16.9620648,12.450945 16.956301,11.5112604 C16.9428522,9.34062951 15.15993,7.60746774 13.0517398,7.62571964 L13.0498185,7.62571964 L13.0478973,7.62571964 C10.9393228,7.60746774 9.15659274,9.34062951 9.1433361,11.5112604 C9.13738022,12.450945 9.14237547,13.3906295 9.14237547,14.330314 L9.1417991,14.330314 C9.1417991,15.3616423 9.14429673,16.3929706 9.13870922,17.4242989 C9.13795659,17.5608999 9.164662,17.6102761 9.31432756,17.6097047 C10.5589148,17.6047045 11.80331,17.6047045 13.0478973,17.6079706 L13.0498185,17.6079706 L13.0517398,17.6079706" id="Fill-13" fill="url(#linearGradient-10)"></path>
            <path d="M15.7642792,16.24855 C15.7650626,16.3717023 15.7308494,16.4206943 15.5990515,16.4199346 C14.8543741,16.4147384 14.1096966,16.4153148 13.3650192,16.4195415 C13.2426354,16.42031 13.1930671,16.3891857 13.194412,16.2560429 C13.20056,15.6032014 13.2013285,14.9499756 13.1942199,14.297134 C13.1926829,14.1476606 13.2497441,14.1134623 13.3855766,14.1159599 C13.7463878,14.1230685 14.107199,14.1182654 14.4682023,14.1180733 C14.8403489,14.1180733 15.2128797,14.123837 15.5850263,14.1151914 C15.7208589,14.1119253 15.7660083,14.1540007 15.7650626,14.2896411 C15.7598603,14.9424827 15.7602445,15.5957085 15.7642792,16.24855 M13.0497417,11.0990173 C12.8535818,11.0988252 12.657422,11.0963276 12.4614542,11.1001701 C12.3565538,11.1020913 12.3175524,11.0684694 12.3406074,10.9583816 C12.4084277,10.6329215 12.700458,10.3906516 13.0397512,10.3856563 C13.0424409,10.3856563 13.0451307,10.3856563 13.0478204,10.3858484 L13.0497417,10.3858484 L13.051663,10.3858484 C13.0543527,10.3856563 13.0570425,10.3856563 13.0597322,10.3856563 C13.3990254,10.3906516 13.6910557,10.6329215 13.7588759,10.9583816 C13.7821231,11.0684694 13.7429296,11.1020913 13.6382213,11.1001701 C13.4420614,11.0963276 13.2459016,11.0988252 13.0497417,11.0990173 M12.9050714,16.2560429 C12.9062241,16.3891857 12.856848,16.42031 12.7344642,16.4195415 C11.9897868,16.4153148 11.2453015,16.4147384 10.5006241,16.4199346 C10.368634,16.4206943 10.3344144,16.3717023 10.3352042,16.24855 C10.339431,15.5957085 10.3396231,14.9424827 10.3344144,14.2896411 C10.333283,14.1540007 10.3786245,14.1119253 10.5144571,14.1151914 C10.8864115,14.123837 11.2591345,14.1180733 11.6312811,14.1180733 C11.9920923,14.1182654 12.3530956,14.1230685 12.7139068,14.1159599 C12.8495472,14.1134623 12.9068005,14.1476606 12.9052635,14.297134 C12.8981549,14.9499756 12.8989234,15.6032014 12.9050714,16.2560429 M10.5073484,11.5430187 C11.2512574,11.5470534 11.9949741,11.5474376 12.7388831,11.5426183 C12.8670306,11.5416739 12.9056478,11.583365 12.904495,11.7101677 C12.8993076,12.3622407 12.8991155,13.0146981 12.9048998,13.6667711 C12.906032,13.7983769 12.8587692,13.8335358 12.7354248,13.8314224 C12.3638546,13.8258508 11.991708,13.8293091 11.6199457,13.8293091 C11.2479912,13.8291169 10.8760368,13.8250823 10.5040823,13.8314224 C10.3774718,13.8337279 10.3336672,13.7910761 10.3346124,13.6638892 C10.3390467,13.0116241 10.339431,12.3593589 10.3346124,11.7070937 C10.3336672,11.5766407 10.3843883,11.5422502 10.5073484,11.5430187 M10.3636388,10.9708698 C10.4368385,10.6454096 10.5586459,10.340699 10.7357853,10.0575064 C10.7769001,9.99218382 10.8137882,9.97815868 10.8866037,10.0213869 C11.2499125,10.2361829 11.6134134,10.4515553 11.984023,10.6530946 C12.177301,10.757995 12.0328228,10.8909457 12.0343598,11.0092948 C12.0357047,11.1226487 11.9356074,11.0974803 11.8660581,11.0982488 C11.637237,11.1005543 11.4084158,11.0990173 11.1797868,11.0990173 C10.9452019,11.0988252 10.7104248,11.0959433 10.4762241,11.1003622 C10.3780481,11.1020913 10.3403916,11.0736568 10.3636388,10.9708698 M11.0585557,9.6509694 C11.5315681,9.16950356 12.0921895,8.86940394 12.7728892,8.81022936 C12.8726022,8.80158373 12.9054556,8.83578202 12.9027659,8.93280527 C12.8981549,9.11013686 12.9016131,9.2878527 12.9016131,9.4651843 L12.9023816,9.4651843 C12.9023816,9.62541675 12.8979628,9.78603344 12.9037265,9.94607377 C12.9073769,10.0386781 12.8854746,10.0972763 12.7865301,10.1216762 C12.6045875,10.1668257 12.4483897,10.2613513 12.3204343,10.3981444 C12.2660629,10.4563584 12.2163024,10.4507868 12.154246,10.4144751 C11.7949718,10.204098 11.4360818,9.9927602 11.0735415,9.78833895 C10.98843,9.74030764 11.0030315,9.70745422 11.0585557,9.6509694 M13.1957569,9.94607377 C13.2015206,9.78603344 13.1972939,9.62541675 13.1972939,9.4651843 L13.1980624,9.4651843 C13.1980624,9.2878527 13.2013285,9.11013686 13.1965254,8.93280527 C13.1940278,8.83578202 13.2268812,8.80158373 13.3265942,8.81022936 C14.0072939,8.86940394 14.5679153,9.16950356 15.0409277,9.6509694 C15.0964519,9.70745422 15.1112455,9.74030764 15.0259419,9.78833895 C14.6635937,9.9927602 14.3045116,10.204098 13.9452374,10.4144751 C13.883181,10.4507868 13.8334205,10.4563584 13.7790491,10.3981444 C13.6510937,10.2613513 13.4948959,10.1668257 13.3129533,10.1216762 C13.2142009,10.0972763 13.1921065,10.0386781 13.1957569,9.94607377 M15.3635059,10.0575064 C15.5406454,10.340699 15.6626449,10.6454096 15.7360368,10.9708698 C15.7592839,11.0736568 15.7214352,11.1020913 15.6234514,11.1003622 C15.3888665,11.0959433 15.1542815,11.0988252 14.9196966,11.0990173 C14.6910676,11.0990173 14.4622464,11.1005543 14.2334253,11.0982488 C14.1638759,11.0974803 14.0637787,11.1226487 14.0651236,11.0092948 C14.0666606,10.8909457 13.9219903,10.757995 14.1154604,10.6530946 C14.4862621,10.4515553 14.8493788,10.2361829 15.2128797,10.0213869 C15.2856952,9.97815868 15.3225833,9.99218382 15.3635059,10.0575064 M15.764871,13.6638892 C15.7658162,13.7910761 15.7220116,13.8337279 15.595209,13.8314224 C15.2236388,13.8250823 14.8514922,13.8291169 14.4795377,13.8293091 C14.1077754,13.8293091 13.7356288,13.8258508 13.3638665,13.8314224 C13.2407142,13.8335358 13.1932593,13.7983769 13.1946041,13.6667711 C13.2003679,13.0146981 13.1999836,12.3622407 13.1947963,11.7101677 C13.1938356,11.583365 13.2324528,11.5416739 13.3606003,11.5426183 C14.1045093,11.5474376 14.848226,11.5470534 15.592135,11.5430187 C15.7150951,11.5422502 15.7658162,11.5766407 15.764871,11.7070937 C15.7602445,12.3593589 15.7602445,13.0116241 15.764871,13.6638892 M16.2305671,11.5385999 C16.2276852,10.1652887 15.3821421,8.95797367 14.0789566,8.52031238 C13.73755,8.40599787 13.3913404,8.35105005 13.051663,8.3498973 L13.0497417,8.3498973 L13.0478204,8.3498973 C12.708143,8.35105005 12.3619333,8.40599787 12.0207189,8.52031238 C10.7173413,8.95797367 9.87179815,10.1652887 9.86891627,11.5385999 C9.86545802,13.2517806 9.87045327,14.9647692 9.86449288,16.6777578 C9.86392102,16.8475965 9.91848458,16.8869822 10.0798698,16.886412 C11.0691226,16.8825633 12.0585676,16.8825633 13.0478204,16.8827555 L13.0497417,16.8827555 L13.051663,16.8827555 C14.0409158,16.8825633 15.0303608,16.8825633 16.0194215,16.886412 C16.1809988,16.8869822 16.2355624,16.8475965 16.2349905,16.6777578 C16.2290301,14.9647692 16.2340254,13.2517806 16.2305671,11.5385999" id="Fill-15" fill="url(#linearGradient-11)"></path>
        </g>
    </g>
</svg>