<?xml version="1.0" encoding="UTF-8"?>
<svg width="18px" height="18px" viewBox="0 0 18 18" version="1.1" xmlns="http://www.w3.org/2000/svg" xmlns:xlink="http://www.w3.org/1999/xlink">
    <title>放大镜icon</title>
    <g id="放大镜icon" stroke="none" stroke-width="1" fill="none" fill-rule="evenodd" opacity="0.799200149">
        <g transform="translate(0.000000, 0.000000)" fill="#FFFFFF" fill-rule="nonzero" id="形状">
            <path d="M17.9583074,16.9600758 L14.1845375,13.1862389 C15.3546896,11.7910173 16.0613817,9.99403075 16.0613817,8.03061276 C16.0613817,3.59540113 12.4658913,0 8.03070201,0 C3.59542344,0 1.77635684e-14,3.59542344 1.77635684e-14,8.03061276 C1.77635684e-14,12.4658913 3.59542344,16.0613148 8.03070201,16.0613148 C9.97669368,16.0613148 11.7605156,15.3686351 13.1504045,14.2170919 L16.9258479,17.9925353 C16.960232,18.0269194 17.1036812,17.9392523 17.2462825,17.7967402 L17.7625123,17.2805104 C17.9050913,17.1379091 17.9926915,16.9944599 17.9583074,16.9600758 Z M8.03067968,14.601252 C4.40183161,14.601252 1.46010733,11.6595278 1.46010733,8.0306797 C1.46010733,4.40183163 4.40183161,1.46010735 8.03067968,1.46010735 C11.6595278,1.46010735 14.601252,4.40183163 14.601252,8.0306797 C14.601252,11.6595278 11.6595501,14.601252 8.03067968,14.601252 Z"></path>
        </g>
    </g>
</svg>