<?xml version="1.0" encoding="UTF-8"?>
<svg width="14px" height="14px" viewBox="0 0 14 14" version="1.1" xmlns="http://www.w3.org/2000/svg" xmlns:xlink="http://www.w3.org/1999/xlink">
    <title>备注提示</title>
    <g id="备注提示" stroke="none" stroke-width="1" fill="none" fill-rule="evenodd">
        <g fill="#000000" fill-rule="nonzero">
            <rect id="矩形" opacity="0" x="0" y="0" width="14" height="14"></rect>
            <path d="M7,0 C3.15,0 0,3.15 0,7 C0,10.85 3.15,14 7,14 C10.85,14 14,10.85 14,7 C14,3.15 10.85,0 7,0 Z M7,12.0003006 C6.4501002,12.0003006 5.9997996,11.55 5.9997996,11.0001002 C5.9997996,10.4502004 6.4501002,9.9998998 7,9.9998998 C7.55175577,10.001441 7.99865917,10.4483444 8.0002004,11.0001002 C7.99865917,11.551856 7.55175577,11.9987594 7,12.0003006 L7,12.0003006 Z M8.2996994,4.4496994 C8.2996994,4.4496994 8.2996994,4.5002004 8.2996994,4.4496994 C8.2996994,4.499499 7.4495992,8.4497996 7.4495992,8.4497996 C7.4495992,8.4497996 7.4993988,8.1495992 7.4495992,8.4497996 C7.3997996,8.75 7.2496994,8.9001002 6.9992986,8.9001002 C6.7495992,8.9001002 6.599499,8.7002004 6.548998,8.4 C6.44869739,8.0997996 5.6988978,4.55 5.6988978,4.55 C5.6988978,4.4496994 5.6490982,4.3501002 5.6490982,4.3003006 C5.6490982,3.550501 6.2487976,2.9501002 6.9992986,2.9501002 C7.7490982,2.9501002 8.34950624,3.5497996 8.34950624,4.3003006 C8.3502004,4.3003006 8.2996994,4.3998998 8.2996994,4.4496994 L8.2996994,4.4496994 Z" id="形状" fill-opacity="0.654829545"></path>
        </g>
    </g>
</svg>