<?xml version="1.0" encoding="UTF-8"?>
<svg width="24px" height="24px" viewBox="0 0 24 24" version="1.1" xmlns="http://www.w3.org/2000/svg" xmlns:xlink="http://www.w3.org/1999/xlink">
    <title>搜索 放大</title>
    <g id="搜索-放大" stroke="none" stroke-width="1" fill="none" fill-rule="evenodd">
        <g fill-rule="nonzero">
            <rect id="矩形" fill="#000000" opacity="0" x="0" y="0" width="24" height="24"></rect>
            <path d="M4.48397777,10.1 C4.48397777,11.588 5.05599998,13.092 6.18799999,14.24 C7.32,15.388 8.81199998,15.972 10.284,15.972 C11.072,15.972 11.856,15.8 12.584,15.468 L15.852,18.78 C15.904,18.812 16.496,19.484 17.508,19.5120612 C17.964,19.516 18.488,19.324 18.908,18.888 C19.336,18.464 19.524,17.94 19.5200624,17.484 C19.496,16.472 18.832,15.868 18.8,15.82 L15.444,12.42 C15.696,11.76 15.828,11.064 15.824,10.364 C15.824,8.87599999 15.252,7.37199998 14.12,6.22399999 C12.988,5.076 11.5,4.49199998 10.024,4.49597958 C8.59599998,4.49597958 7.17199999,5.04 6.09599998,6.132 C5.016,7.21999999 4.48000001,8.65999999 4.48397777,10.1 Z M13.64,14.828 C13.84,14.676 14.032,14.512 14.212,14.332 C14.456,14.084 14.672,13.816 14.86,13.536 L17.944,16.66 C17.928,16.676 18.344,17.112 18.316,17.484 C18.312,17.652 18.276,17.812 18.052,18.048 C17.816,18.276 17.668,18.308 17.508,18.312 C17.156,18.34 16.708,17.948 16.708,17.94 L13.64,14.828 Z M5.68000001,10.1 C5.68000001,8.952 6.10400002,7.82799998 6.948,6.972 C7.79200001,6.11599999 8.89999999,5.69200001 10.024,5.69200001 C11.188,5.69200001 12.36,6.14800001 13.268,7.06400002 C14.172,7.98400001 14.628,9.17600002 14.628,10.36 C14.628,11.508 14.204,12.628 13.36,13.488 C12.512,14.344 11.408,14.768 10.284,14.768 C9.12000002,14.768 7.94800003,14.312 7.04000002,13.396 C6.132,12.476 5.68399999,11.284 5.68000001,10.1 Z" id="形状" fill="#1890FF"></path>
        </g>
    </g>
</svg>