<?xml version="1.0" encoding="UTF-8"?>
<svg width="18px" height="18px" viewBox="0 0 18 18" version="1.1" xmlns="http://www.w3.org/2000/svg" xmlns:xlink="http://www.w3.org/1999/xlink">
    <title>店铺icon</title>
    <g id="店铺icon" stroke="none" stroke-width="1" fill="none" fill-rule="evenodd">
        <g fill-rule="nonzero">
            <rect id="矩形" fill="#000000" opacity="0" x="0" y="0" width="18" height="18"></rect>
            <path d="M14.25,17.25 L3.74999999,17.25 C2.475,17.25 1.49999999,16.275 1.49999999,15 L1.49999999,7.50000001 C1.49999999,7.05000001 1.8,6.75 2.25,6.75 C2.7,6.75 2.99999999,7.05000001 2.99999999,7.50000001 L2.99999999,15 C2.99999999,15.45 3.30000001,15.75 3.74999999,15.75 L14.25,15.75 C14.7,15.75 15,15.45 15,15 L15,7.50000001 C15,7.05000001 15.3,6.75 15.75,6.75 C16.2,6.75 16.5,7.05000001 16.5,7.50000001 L16.5,15 C16.5,16.275 15.525,17.25 14.25,17.25 Z" id="路径" fill="#FFFFFF"></path>
            <path d="M10.875,16.875 C10.425,16.875 10.125,16.575 10.125,16.125 L10.125,11.625 L7.87500001,11.625 L7.87500001,16.125 C7.87500001,16.575 7.57499999,16.875 7.12499999,16.875 C6.67499999,16.875 6.37500001,16.575 6.37500001,16.125 L6.37500001,10.875 C6.37500001,10.425 6.67500001,10.125 7.12499999,10.125 L10.875,10.125 C11.325,10.125 11.625,10.425 11.625,10.875 L11.625,16.125 C11.625,16.575 11.325,16.875 10.875,16.875 Z M11.1,8.40000001 C10.2,8.40000001 9.52500001,7.95000001 9,7.425 C8.55,7.95000001 7.875,8.40000001 6.89999999,8.40000001 C5.92499999,8.40000001 5.175,7.875 4.725,7.34999999 C4.275,7.79999999 3.67500001,8.24999999 3.07500001,8.24999999 C1.87499999,8.24999999 0.974999988,7.72499999 0.525000006,6.82499999 C0.0750000059,6.15000001 0.0750000059,5.54999999 0.0750000059,5.47500001 C0.0750000059,5.4 0.0750000059,5.32499999 0.149999994,5.25000001 L1.57500001,1.35 C1.65000001,1.04999999 1.94999999,0.824999994 2.25,0.824999994 L15.75,0.824999994 C16.05,0.824999994 16.35,1.04999999 16.425,1.35 L17.85,5.25000001 C17.85,5.32499999 17.925,5.47500001 17.925,5.54999999 C17.85,6.525 17.175,8.32499999 15,8.32499999 C14.4,8.32499999 13.725,7.875 13.275,7.425 C12.825,7.875 12.075,8.40000001 11.1,8.40000001 Z M9,5.25000001 C9.30000001,5.25000001 9.59999999,5.47500001 9.75000001,5.77499999 C9.75000001,5.85 10.125,6.89999999 11.1,6.89999999 C12.075,6.89999999 12.45,5.92499999 12.45,5.77499999 C12.525,5.47499999 12.75,5.32500001 13.05,5.25000001 C13.35,5.175 13.65,5.32500001 13.8,5.54999999 C14.175,6.14999999 14.775,6.75 15,6.75 C16.05,6.75 16.35,5.92500001 16.35,5.54999999 L15.15,2.32500001 L2.77500001,2.32500001 L1.575,5.54999999 C1.65000001,5.92499999 1.87500001,6.75 3.075,6.75 C3.29999999,6.75 3.825,6.15000001 4.19999999,5.625 C4.34999999,5.32500001 4.575,5.25000001 4.87499999,5.25000001 C5.175,5.32500001 5.4,5.47500001 5.47500001,5.77499999 C5.47500001,5.85 5.85,6.89999999 6.89999999,6.89999999 C7.94999999,6.89999999 8.24999999,5.85 8.325,5.77499999 C8.40000001,5.47499999 8.69999999,5.24999999 9,5.25000001 Z" id="形状" fill="#FFFFFF"></path>
        </g>
    </g>
</svg>