<?xml version="1.0" encoding="UTF-8"?>
<svg width="14px" height="14px" viewBox="0 0 14 14" version="1.1" xmlns="http://www.w3.org/2000/svg" xmlns:xlink="http://www.w3.org/1999/xlink">
    <title>展开按钮</title>
    <g id="展开按钮" stroke="none" stroke-width="1" fill="none" fill-rule="evenodd" opacity="0.301920573">
        <g fill="#000000" fill-rule="nonzero">
            <rect id="矩形" opacity="0" x="0" y="0" width="14" height="14"></rect>
            <path d="M12.25,0 L14,0 L14,1.75 L12.25,1.75 L12.25,0 Z M0,0 L9.625,0 L9.625,1.75 L0,1.75 L0,0 Z M12.25,6.125 L14,6.125 L14,7.875 L12.25,7.875 L12.25,6.125 Z M0,6.125 L9.625,6.125 L9.625,7.875 L0,7.875 L0,6.125 Z M12.25,12.25 L14,12.25 L14,14 L12.25,14 L12.25,12.25 Z M0,12.25 L9.625,12.25 L9.625,14 L0,14 L0,12.25 Z" id="形状"></path>
        </g>
    </g>
</svg>