<?xml version="1.0" encoding="UTF-8"?>
<svg width="16px" height="16px" viewBox="0 0 16 16" version="1.1" xmlns="http://www.w3.org/2000/svg" xmlns:xlink="http://www.w3.org/1999/xlink">
    <title>货架管理icon未选中</title>
    <g id="货架管理icon未选中" stroke="none" stroke-width="1" fill="none" fill-rule="evenodd" opacity="0.653692336">
        <g id="仓库库存" fill-rule="nonzero">
            <rect id="矩形" fill="#000000" opacity="0" x="0" y="0" width="16" height="16"></rect>
            <path d="M7.07361293,1.33048422 C7.61229295,0.889838594 8.38770705,0.889838594 8.92638707,1.33048422 L15.2963746,6.53542376 C15.4499488,6.66091215 15.5247772,6.85863685 15.4926726,7.0541169 C15.460568,7.24959694 15.3264078,7.41313424 15.1407288,7.48312589 C14.9550499,7.55311754 14.7460613,7.51889731 14.592487,7.39344175 L8.22249956,2.18850221 C8.09322021,2.08238703 7.90677979,2.08238703 7.77750044,2.18850221 L1.40751295,7.39344175 C1.25393867,7.51889731 1.04495008,7.55311754 0.859271163,7.48312589 C0.673592246,7.41313424 0.539432045,7.24959694 0.50732741,7.0541169 C0.475222775,6.85863685 0.550051163,6.66091215 0.703625445,6.53542376 L7.07361293,1.33048422 Z M4.39445153,6.46112688 C4.39445153,5.98984075 4.77639522,5.60227721 5.25333873,5.60227721 L6.92083545,5.60227721 C7.14882206,5.60249764 7.36737909,5.69311607 7.5284076,5.85418964 C7.68943612,6.01526321 7.77973973,6.23359185 7.7794456,6.46112688 L7.7794456,8.13391544 C7.7794456,8.60520158 7.39777896,8.99248789 6.92083545,8.99248789 L5.25278317,8.99248789 C5.0247966,8.99234092 4.80621035,8.90179299 4.64512976,8.74077142 C4.48404916,8.57974986 4.39367487,8.36145046 4.39389557,8.13391544 L4.39389557,6.46140411 L4.39445153,6.46112688 Z M5.50556046,6.71118576 L5.50556046,7.88385656 L6.66833595,7.88385656 L6.66833595,6.71118576 L5.50556046,6.71118576 Z M2.67612157,7.35158045 C2.98294583,7.35158045 3.23167603,7.59981809 3.23167603,7.90603473 L3.23167603,13.2287958 C3.23167603,13.5975079 3.52889767,13.8910914 3.88889696,13.8910914 L12.074992,13.8910914 C12.2501089,13.8902114 12.4177029,13.819939 12.5409041,13.695734 C12.6641054,13.571529 12.7328214,13.4035659 12.7319351,13.2287958 L12.7319351,7.90603473 C12.7319351,7.59981809 12.9806654,7.35158045 13.2874896,7.35158045 C13.5943139,7.35158045 13.8430441,7.59981809 13.8430441,7.90603473 L13.8430441,13.2287958 C13.8430441,14.2043581 13.0541567,15 12.0747142,15 L3.88889696,15 C2.90973222,15 2.12056711,14.2043581 2.12056711,13.2287958 L2.12056711,7.90603473 C2.12056711,7.59981809 2.36929731,7.35158045 2.67612157,7.35158045 Z M4.39445153,10.2632971 C4.39445153,9.79173373 4.77639522,9.40444742 5.25333873,9.40444742 L6.92083545,9.40444742 C7.14882206,9.40466785 7.36737909,9.49528628 7.5284076,9.65635985 C7.68943612,9.81743342 7.77973973,10.0357621 7.7794456,10.2632971 L7.7794456,11.9360857 C7.7794456,12.4073718 7.39777896,12.7946581 6.92083545,12.7946581 L5.25278317,12.7946581 C5.0247966,12.7945111 4.80621035,12.7039632 4.64512976,12.5429416 C4.48404916,12.3819201 4.39367487,12.1636207 4.39389557,11.9360857 L4.39389557,10.2632971 L4.39445153,10.2632971 Z M5.50556046,10.513356 L5.50556046,11.6860268 L6.66833595,11.6860268 L6.66833595,10.513356 L5.50556046,10.513356 Z M8.1841659,10.2632971 C8.1841659,9.79173373 8.56583222,9.40444742 9.04305351,9.40444742 L10.7105502,9.40444742 C10.9385368,9.40466785 11.1570939,9.49528628 11.3181224,9.65635985 C11.4791509,9.81743342 11.5694545,10.0357621 11.5691604,10.2632971 L11.5691604,11.9360857 C11.5691604,12.4073718 11.1874937,12.7946581 10.7105502,12.7946581 L9.04305351,12.7946581 C8.81506693,12.7945111 8.59648068,12.7039632 8.43540009,12.5429416 C8.2743195,12.3819201 8.1839452,12.1636207 8.1841659,11.9360857 L8.1841659,10.2632971 L8.1841659,10.2632971 Z M9.29527523,10.513356 L9.29527523,11.6860268 L10.4580507,11.6860268 L10.4580507,10.513356 L9.29527523,10.513356 Z" id="形状" fill="#FFFFFF"></path>
        </g>
    </g>
</svg>