<?xml version="1.0" encoding="UTF-8"?>
<svg width="16px" height="16px" viewBox="0 0 16 16" version="1.1" xmlns="http://www.w3.org/2000/svg" xmlns:xlink="http://www.w3.org/1999/xlink">
    <title>订单管理icon选中</title>
    <g id="订单管理icon选中" stroke="none" stroke-width="1" fill="none" fill-rule="evenodd">
        <g id="订单" fill-rule="nonzero">
            <rect id="矩形" fill="#000000" opacity="0" x="0" y="0" width="16" height="16"></rect>
            <path d="M12.7691167,1.42818434 L11.9036532,1.42818434 C11.6642768,1.42818434 11.3880778,1.57710271 11.3880778,1.8191391 C11.3880778,2.0611608 11.6642768,2.30319719 11.9036532,2.30319719 L12.7691167,2.30319719 C13.2846776,2.30319719 13.6345656,2.65693703 13.6345656,3.17821004 L13.6345656,13.2500037 C13.6345656,13.7712767 13.2846776,14.1250165 12.7691167,14.1250165 L3.45183387,14.1250165 C2.9362584,14.1250165 2.36544892,13.7712767 2.36544892,13.2500037 L2.36544892,3.17822472 C2.36544892,2.65695171 2.71532238,2.30321187 3.23089785,2.30321187 L4.3172828,2.30321187 C4.55664468,2.30321187 4.6487304,2.06117548 4.6487304,1.81915378 C4.6487304,1.57711739 4.5566592,1.42818434 4.3172828,1.42818434 L3.23091237,1.42818434 C2.01558999,1.42818434 1.5,2.19149373 1.5,3.19682483 L1.5,13.1569444 C1.5,14.23672 2.14446934,15 3.32292549,15 L12.6770019,15 C13.8555307,15 14.5,14.3670089 14.5,13.1569444 L14.5,3.19682483 C14.5,2.19149373 13.8923533,1.42818434 12.7691312,1.42818434 L12.7691312,1.42818434 L12.7691167,1.42818434 Z M4.3172828,5.37503487 C4.3172828,5.61705657 4.51986557,5.82180465 4.75916937,5.82180465 L11.2591839,5.82180465 C11.4985603,5.82180465 11.7011431,5.61705657 11.7011431,5.37503487 C11.7011431,5.13299848 11.4985603,4.92819168 11.2591839,4.92819168 L4.75916937,4.92819168 C4.51986557,4.92819168 4.3172828,5.13299848 4.3172828,5.37503487 L4.3172828,5.37503487 Z M11.2407871,7.34843811 L4.75916937,7.34843811 C4.51986557,7.34843811 4.3172828,7.5532449 4.3172828,7.79528129 C4.3172828,8.03724427 4.51986557,8.24205107 4.75916937,8.24205107 L11.2591839,8.24205107 C11.4985603,8.24205107 11.7011431,8.03724427 11.7011431,7.79528129 C11.6827462,7.53463011 11.4801635,7.34843811 11.2407726,7.34843811 L11.2407726,7.34843811 L11.2407871,7.34843811 Z M11.2407871,9.97340324 L4.75916937,9.97340324 C4.51986557,9.97340324 4.3172828,10.1782247 4.3172828,10.4202611 C4.3172828,10.6622681 4.51986557,10.8670162 4.75916937,10.8670162 L11.2591839,10.8670162 C11.4985603,10.8670162 11.7011431,10.6622681 11.7011431,10.4202611 C11.6827462,10.1595952 11.4801635,9.97340324 11.2407726,9.97340324 L11.2407726,9.97340324 L11.2407871,9.97340324 Z M6.50849307,2.52663346 L9.52834412,2.52663346 C9.87823209,2.52663346 10.1727989,2.17289362 10.1727989,1.76330939 C10.1727989,1.35375452 9.87820305,1 9.50993278,1 L6.50850759,1 C6.14023732,1 5.84564144,1.35373984 5.84564144,1.76330939 C5.84564144,2.17289362 6.1402228,2.52663346 6.50850759,2.52663346 L6.50850759,2.52663346 L6.50849307,2.52663346 Z" id="形状" fill="#FFFFFF"></path>
        </g>
    </g>
</svg>