<?xml version="1.0" encoding="UTF-8"?>
<svg width="16px" height="16px" viewBox="0 0 16 16" version="1.1" xmlns="http://www.w3.org/2000/svg" xmlns:xlink="http://www.w3.org/1999/xlink">
    <title>货物icon选中</title>
    <g id="货物icon选中" stroke="none" stroke-width="1" fill="none" fill-rule="evenodd">
        <g fill-rule="nonzero">
            <rect id="矩形" fill="#000000" opacity="0" x="0" y="0" width="16" height="16"></rect>
            <path d="M15,4.29189189 C15,2.47567568 13.5243243,1 11.7005405,1 C9.87675676,1 8.40108108,2.47567568 8.40108108,4.29189189 L8.40108108,7.57621622 L11.7005405,7.57621622 C13.5167568,7.57621622 15,6.10810811 15,4.29189189 Z M9.30918919,6.67567568 L9.30918919,4.29189189 C9.30918919,2.9827027 10.3837838,1.90810811 11.692973,1.90810811 C13.0021622,1.90810811 14.0767568,2.97513514 14.0767568,4.29189189 C14.0767568,5.60864865 13.0021622,6.67567568 11.692973,6.67567568 L9.30918919,6.67567568 Z M1,11.7005405 C1,13.5167568 2.47567568,14.9924324 4.29189189,14.9924324 C6.10054054,14.9924324 7.57621622,13.5167568 7.58378378,11.7005405 L7.58378378,8.40864865 L4.29189189,8.40864865 C2.47567568,8.40864865 1,9.88432432 1,11.7005405 Z M6.67567568,9.30918919 L6.67567568,11.692973 C6.67567568,13.0021622 5.60108108,14.0691892 4.29189189,14.0691892 C2.97513514,14.0691892 1.90054054,13.0021622 1.90054054,11.692973 C1.90054054,10.3762162 2.97513514,9.30918919 4.29189189,9.30918919 L6.67567568,9.30918919 L6.67567568,9.30918919 Z M4.29189189,1 C2.47567568,1 1,2.46810811 1,4.28432432 C1,6.10054054 2.47567568,7.57621622 4.29189189,7.57621622 L7.58378378,7.57621622 L7.58378378,4.28432432 C7.58378378,2.46810811 6.10810811,1 4.29189189,1 Z M6.67567568,4.29945946 L6.67567568,6.68324324 L4.29189189,6.68324324 C2.97513514,6.68324324 1.90054054,5.60864865 1.90054054,4.29945946 C1.90054054,2.9827027 2.97513514,1.90810811 4.29189189,1.90810811 C5.60108108,1.90810811 6.67567568,2.9827027 6.67567568,4.29945946 Z M11.692973,8.40108108 L8.39351351,8.40108108 L8.39351351,11.7005405 C8.39351351,13.5167568 9.86918919,14.9924324 11.692973,14.9924324 C13.5167568,14.9924324 14.9848937,13.5167568 14.9848937,11.7005405 C14.9924324,9.87675676 13.5091892,8.40108108 11.692973,8.40108108 Z M11.7005405,14.0691892 C10.3837838,14.0691892 9.31675676,13.0021622 9.31675676,11.692973 L9.31675676,9.29405405 L11.7005405,9.29405405 C13.0172973,9.29405405 14.0843243,10.3686486 14.0843243,11.6778378 C14.0843243,12.987027 13.0172973,14.0691892 11.7005405,14.0691892 Z" id="形状" fill="#FFFFFF"></path>
        </g>
    </g>
</svg>