<?xml version="1.0" encoding="UTF-8"?>
<svg width="16px" height="16px" viewBox="0 0 16 16" version="1.1" xmlns="http://www.w3.org/2000/svg" xmlns:xlink="http://www.w3.org/1999/xlink">
    <title>系统设置icon未选中</title>
    <g id="系统设置icon未选中" stroke="none" stroke-width="1" fill="none" fill-rule="evenodd" opacity="0.649042039">
        <g id="设置备份" fill-rule="nonzero">
            <rect id="矩形" fill="#000000" opacity="0" x="0" y="0" width="16" height="16"></rect>
            <path d="M15.5,8.00840322 C15.5,7.43085255 15.4553571,6.94215584 15.3214286,6.58674004 C15.3660714,6.23132425 15.1428571,5.96476241 14.7857143,5.87590846 L14.7410714,5.87590846 C14.1160714,5.74262754 13.6696429,5.43163872 13.3125,4.80966108 C13,4.27653739 12.9107143,3.65455975 13.1339286,3.07700909 C13.2678571,2.81044724 13.1785714,2.45503145 12.9107143,2.23289658 C12.2410714,1.61091894 11.3928571,1.12222223 10.4553571,0.811233407 C10.1875,0.677952484 9.83035714,0.766806433 9.60714286,1.03336828 C9.20535714,1.52206499 8.625,1.78862684 7.95535714,1.78862684 C7.375,1.78862684 6.79464286,1.52206499 6.30357143,1.03336828 C5.99107143,0.722379458 5.67857143,0.766806433 5.45535714,0.811233407 C4.47321429,1.1666492 3.71428571,1.61091894 3.08928571,2.1884696 C2.77678571,2.3661775 2.6875,2.72159329 2.82142857,2.98815514 C3,3.65455975 2.95535714,4.27653739 2.64285714,4.80966108 C2.375,5.34278477 1.83928571,5.69820056 1.21428571,5.87590846 C1.16964286,5.87590846 1.125,5.87590846 1.125,5.92033543 C0.901785714,6.05361635 0.723214286,6.23132425 0.678571429,6.45345912 L0.678571429,6.4978861 C0.589285714,6.98658281 0.5,7.43085255 0.5,7.96397624 C0.5,8.54152691 0.544642857,9.03022362 0.678571429,9.38563941 C0.633928571,9.65220126 0.767857143,9.9187631 1.16964286,10.096471 L1.21428571,10.096471 C1.83928571,10.2297519 2.28571429,10.5407407 2.64285714,11.1627184 C2.95535714,11.6958421 3.04464286,12.3178197 2.82142857,12.8953704 C2.6875,13.1619322 2.77678571,13.517348 3.04464286,13.7394829 C3.66964286,14.3170335 4.51785714,14.8501572 5.5,15.205573 L5.54464286,15.205573 C5.58928571,15.205573 5.58928571,15.25 5.63392857,15.25 L5.72321429,15.25 C5.94642857,15.25 6.16964286,15.1611461 6.34821429,14.9834382 C6.75,14.4947414 7.33035714,14.2281796 8,14.2281796 C8.58035714,14.2281796 9.16071429,14.4947414 9.65178571,14.9834382 C9.83035714,15.1611461 10.0089286,15.25 10.2321429,15.25 C10.3214286,15.25 10.4553571,15.25 10.5446429,15.205573 C11.5714286,14.8057303 12.2857143,14.3614605 12.9553571,13.7839099 C13.2232143,13.606202 13.3571429,13.2507862 13.2232143,12.9842243 C13.0446429,12.3178197 13.0892857,11.6958421 13.4017857,11.1627184 C13.6696429,10.6295947 14.2053571,10.2741789 14.8303571,10.096471 C14.875,10.096471 14.9196429,10.096471 14.9196429,10.052044 C15.1428571,9.9187631 15.3214286,9.74105521 15.3660714,9.51892034 L15.3660714,9.47449336 C15.4553571,8.98579665 15.5,8.49709993 15.5,8.00840322 L15.5,8.00840322 Z M1.52678571,6.72002097 C2.375,6.4978861 3.08928571,5.96476241 3.49107143,5.25393082 C3.89285714,4.49867226 4.02678571,3.65455975 3.80357143,2.81044724 C4.38392857,2.32175053 5.05357143,1.92190776 5.85714286,1.61091894 C6.52678571,2.23289658 7.28571429,2.58831237 8.13392857,2.58831237 C9.02678571,2.58831237 9.875,2.23289658 10.4107143,1.61091894 C11.1696429,1.87748079 11.8392857,2.27732355 12.4196429,2.81044724 C12.1964286,3.69898673 12.2857143,4.54309923 12.7321429,5.25393082 C13.1339286,6.00918938 13.8035714,6.54231307 14.6517857,6.76444794 C14.7410714,7.11986373 14.7857143,7.56413347 14.7857143,8.00840322 C14.7857143,8.36381901 14.7410714,8.7192348 14.6517857,9.20793152 C13.7589286,9.47449336 13.0892857,10.0076171 12.7321429,10.7184486 C12.3303571,11.4737072 12.1964286,12.3178197 12.4196429,13.1619322 C11.8392857,13.6506289 11.1696429,14.0504717 10.3660714,14.3614605 C9.69642857,13.7394829 8.89285714,13.4284941 8.08928571,13.4284941 C7.19642857,13.4284941 6.39285714,13.7839099 5.8125,14.4058875 C5.05357143,14.1393256 4.38392857,13.7394829 3.80357143,13.2063592 C4.02678571,12.3178197 3.9375,11.4737072 3.49107143,10.7628756 C3.08928571,10.0076171 2.41964286,9.47449336 1.57142857,9.25235849 C1.48214286,8.8969427 1.4375,8.40824598 1.4375,8.00840322 C1.39285714,7.56413347 1.4375,7.20871768 1.52678571,6.72002097 Z M10.7678571,7.03100979 C10.6785714,6.80887491 10.4553571,6.67559399 10.2321429,6.72002097 C10.0089286,6.80887491 9.875,7.07543676 9.96428571,7.29757163 C10.0982143,7.65298742 10.0982143,8.09725716 9.96428571,8.58595388 C9.78571429,9.0746506 9.42857143,9.47449336 8.98214286,9.74105521 C8.49107143,9.96319008 7.95535714,10.0076171 7.46428571,9.82990916 C6.97321429,9.65220126 6.57142857,9.29678547 6.30357143,8.85251572 C6.08035714,8.36381901 6.03571429,7.83069532 6.21428571,7.3419986 C6.39285714,6.85330189 6.75,6.45345912 7.19642857,6.18689728 C7.6875,5.96476241 8.22321429,5.92033543 8.71428571,6.09804333 C8.9375,6.18689728 9.20535714,6.05361635 9.29464286,5.83148148 C9.38392857,5.60934661 9.25,5.34278477 9.02678571,5.25393082 C8.3125,4.98736898 7.50892857,5.03179595 6.79464286,5.38721174 C6.08035714,5.74262754 5.54464286,6.3201782 5.32142857,7.03100979 C5.05357143,7.74184137 5.09821429,8.54152691 5.45535714,9.25235849 C5.8125,9.96319008 6.39285714,10.4963138 7.10714286,10.7184486 C7.375,10.8073026 7.73214286,10.8961565 8.04464286,10.8961565 C9.29464286,10.8961565 10.3660714,10.096471 10.7678571,8.94136967 C10.9464286,8.27496506 10.9464286,7.65298742 10.7678571,7.03100979 L10.7678571,7.03100979 Z" id="形状" fill="#FFFFFF"></path>
        </g>
    </g>
</svg>